<svg width="128" height="128" viewBox="0 0 128 128" xmlns="http://www.w3.org/2000/svg">
  <!-- Background circle -->
  <circle cx="64" cy="64" r="60" fill="#007ACC"/>
  
  <!-- Folder shape -->
  <path d="M 30 45 L 30 85 C 30 88 32 90 35 90 L 93 90 C 96 90 98 88 98 85 L 98 52 C 98 49 96 47 93 47 L 65 47 L 60 42 C 59 41 58 40 56 40 L 35 40 C 32 40 30 42 30 45 Z" fill="#FFF" opacity="0.9"/>
  
  <!-- Lock symbol -->
  <rect x="52" y="60" width="24" height="18" rx="2" fill="#007ACC"/>
  <path d="M 56 60 L 56 54 C 56 50 59 47 64 47 C 69 47 72 50 72 54 L 72 60" stroke="#007ACC" stroke-width="4" fill="none"/>
  
  <!-- Text ".admin" -->
  <text x="64" y="108" font-family="Arial, sans-serif" font-size="14" fill="#FFF" text-anchor="middle" font-weight="bold">.admin</text>
</svg>
